<svg xmlns="http://www.w3.org/2000/svg" width="738.053" height="100.228" viewBox="667.634 53.406 738.053 100.228" enable-background="new 667.634 53.406 738.053 100.228"><path d="M667.634 58.81h21.395v60.75c0 8.448 5.814 15.585 14.532 15.585 8.71 0 14.656-7.137 14.656-15.585V58.81h21.396v60.88c0 19.022-13.866 33.943-36.052 33.943-22.06 0-35.925-14.923-35.925-33.944V58.81h-.003zM755.562 87.6h20.205v9.246c3.57-6.864 10.96-10.828 21-10.828 8.716 0 14.267 3.037 17.702 7.264 3.957 4.885 5.016 11.094 5.016 20.205v37.774h-20.204v-32.62c0-8.98-2.775-15.456-11.09-15.456-8.325 0-12.42 6.338-12.42 16.114v31.963h-20.205V87.6h-.005zM845.474 53.66c7.395 0 13.075 5.68 13.075 12.81 0 7.002-5.682 12.813-13.076 12.813-7.262 0-12.944-5.812-12.944-12.814 0-7.13 5.683-12.81 12.944-12.81zM835.44 87.6h20.202v63.66H835.44V87.6zM868.176 119.43c0-18.225 13.34-33.547 35.395-33.547 22.06 0 35.263 15.322 35.263 33.548 0 18.223-13.207 33.547-35.262 33.547-22.05 0-35.394-15.324-35.394-33.546zm50.584 0c0-8.85-6.078-16.246-15.325-16.246-9.108 0-15.052 7.4-15.052 16.247 0 8.978 5.943 16.246 15.052 16.246 9.246 0 15.325-7.27 15.325-16.245zM951.618 87.6h20.206v9.246c3.567-6.864 10.96-10.828 20.998-10.828 8.716 0 14.266 3.037 17.697 7.264 3.958 4.885 5.016 11.094 5.016 20.205v37.774h-20.2v-32.62c0-8.98-2.775-15.456-11.094-15.456-8.325 0-12.418 6.338-12.418 16.114v31.963h-20.206V87.6zM1162.222 151.258h-20.867V93.94l-19.942 57.318h-15.85l-20.6-57.317v57.318h-20.867v-92.45h24.7l24.692 64.314 24.435-64.313h24.3v92.448zM1246.31 87.6v63.66h-20.2v-8.984c-3.17 5.81-10.567 10.565-20.337 10.565-16.903 0-30.112-14.395-30.112-33.41 0-19.018 13.21-33.412 30.113-33.412 9.375 0 16.904 4.486 20.337 10.698v-9.12h20.2v.004zm-20.2 31.83c0-8.718-6.08-16.246-15.19-16.246-9.115 0-15.187 7.528-15.187 16.247 0 8.85 6.07 16.246 15.186 16.246 9.11 0 15.19-7.4 15.19-16.245zM1307.303 142.273c-3.17 5.81-10.565 10.566-20.338 10.566-16.903 0-30.112-14.397-30.112-33.413 0-19.017 13.21-33.41 30.112-33.41 9.372 0 16.9 4.485 20.338 10.695V58.81h20.202v92.448h-20.202v-8.985zm0-22.842c0-8.718-6.08-16.246-15.192-16.246s-15.185 7.528-15.185 16.247c0 8.85 6.072 16.246 15.186 16.246 9.113 0 15.193-7.4 15.193-16.245zM1358.247 124.315c0 7.66 3.568 14.13 13.738 14.13 7.13 0 10.43-3.165 11.89-7.263h19.805c-2.107 12.018-13.21 21.795-31.43 21.795-22.32 0-34.34-14.796-34.34-33.546 0-18.62 11.887-33.547 33.412-33.547 20.472 0 33.15 13.47 33.15 31.167 0 2.51-.137 3.83-.66 7.263h-45.565v.002zm0-11.62h26.42c0-7.66-5.418-12.546-13.213-12.546-7.523 0-13.207 4.49-13.207 12.545z"/></svg>