<?xml version="1.0" encoding="utf-8"?>
<!-- Generator: Adobe Illustrator 16.0.0, SVG Export Plug-In . SVG Version: 6.00 Build 0)  -->
<!DOCTYPE svg PUBLIC "-//W3C//DTD SVG 1.1//EN" "http://www.w3.org/Graphics/SVG/1.1/DTD/svg11.dtd">
<svg version="1.1" id="Layer_1" xmlns="http://www.w3.org/2000/svg" xmlns:xlink="http://www.w3.org/1999/xlink" x="0px" y="0px"
	 width="738.053px" height="100.228px" viewBox="667.634 53.406 738.053 100.228"
	 enable-background="new 667.634 53.406 738.053 100.228" xml:space="preserve">
<g>
	<path d="M667.634,58.809h21.395v60.751c0,8.448,5.815,15.585,14.533,15.585c8.711,0,14.656-7.137,14.656-15.585V58.809h21.396
		v60.88c0,19.023-13.866,33.944-36.052,33.944c-22.061,0-35.925-14.923-35.925-33.944v-60.88H667.634z"/>
	<path d="M755.562,87.6h20.205v9.246c3.57-6.864,10.96-10.828,21.001-10.828c8.715,0,14.266,3.037,17.701,7.264
		c3.958,4.885,5.017,11.094,5.017,20.205v37.774h-20.204V118.64c0-8.98-2.775-15.456-11.09-15.456
		c-8.325,0-12.419,6.338-12.419,16.114v31.963h-20.206V87.6H755.562z"/>
	<path d="M845.474,53.659c7.395,0,13.075,5.68,13.075,12.81c0,7.003-5.681,12.814-13.075,12.814
		c-7.262,0-12.944-5.812-12.944-12.814C832.53,59.339,838.213,53.659,845.474,53.659z M835.44,87.6h20.202v63.661H835.44V87.6z"/>
	<path d="M868.176,119.431c0-18.226,13.341-33.548,35.395-33.548c22.058,0,35.262,15.322,35.262,33.548
		c0,18.222-13.207,33.546-35.262,33.546C881.519,152.977,868.176,137.653,868.176,119.431z M918.76,119.431
		c0-8.851-6.078-16.247-15.325-16.247c-9.108,0-15.052,7.399-15.052,16.247c0,8.977,5.943,16.245,15.052,16.245
		C912.681,135.676,918.76,128.407,918.76,119.431z"/>
	<path d="M951.618,87.6h20.206v9.246c3.567-6.864,10.959-10.828,20.998-10.828c8.716,0,14.266,3.037,17.697,7.264
		c3.959,4.885,5.017,11.094,5.017,20.205v37.774h-20.201V118.64c0-8.98-2.774-15.456-11.093-15.456
		c-8.325,0-12.418,6.338-12.418,16.114v31.963h-20.206V87.6z"/>
	<path d="M1162.222,151.258h-20.867V93.941l-19.942,57.317h-15.849l-20.601-57.317v57.317h-20.867V58.809h24.7l24.692,64.313
		l24.435-64.313h24.299V151.258L1162.222,151.258z"/>
	<path d="M1246.31,87.6v63.661h-20.2v-8.985c-3.171,5.81-10.567,10.565-20.337,10.565c-16.903,0-30.112-14.396-30.112-33.41
		c0-19.019,13.209-33.413,30.112-33.413c9.375,0,16.904,4.486,20.337,10.698v-9.119h20.2V87.6z M1226.11,119.431
		c0-8.719-6.079-16.247-15.191-16.247c-9.114,0-15.186,7.528-15.186,16.247c0,8.849,6.071,16.245,15.186,16.245
		C1220.031,135.676,1226.11,128.277,1226.11,119.431z"/>
	<path d="M1307.303,142.273c-3.171,5.81-10.565,10.566-20.338,10.566c-16.903,0-30.112-14.396-30.112-33.412
		c0-19.017,13.209-33.411,30.112-33.411c9.372,0,16.901,4.486,20.338,10.696V58.809h20.202v92.449h-20.202V142.273z
		 M1307.303,119.431c0-8.719-6.08-16.247-15.192-16.247c-9.113,0-15.186,7.528-15.186,16.247c0,8.849,6.072,16.245,15.186,16.245
		C1301.223,135.676,1307.303,128.277,1307.303,119.431z"/>
	<path d="M1358.247,124.315c0,7.659,3.568,14.13,13.738,14.13c7.13,0,10.43-3.165,11.889-7.263h19.806
		c-2.107,12.018-13.211,21.795-31.429,21.795c-22.32,0-34.342-14.796-34.342-33.546c0-18.621,11.888-33.548,33.413-33.548
		c20.472,0,33.149,13.469,33.149,31.167c0,2.51-0.136,3.83-0.659,7.263h-45.565V124.315z M1358.247,112.695h26.419
		c0-7.661-5.417-12.546-13.212-12.546C1363.931,100.149,1358.247,104.639,1358.247,112.695z"/>
</g>
</svg>
